<?xml version="1.0" encoding="UTF-8" standalone="no"?>
<svg
        xmlns:dc="http://purl.org/dc/elements/1.1/"
        xmlns:cc="http://creativecommons.org/ns#"
        xmlns:rdf="http://www.w3.org/1999/02/22-rdf-syntax-ns#"
        xmlns:svg="http://www.w3.org/2000/svg"
        xmlns="http://www.w3.org/2000/svg"
        viewBox="0 0 154.2 49.413334"
        height="49.413334"
        width="154.2"
        xml:space="preserve"
        id="svg2"
        version="1.1"><metadata
     id="metadata8"><rdf:RDF><cc:Work
         rdf:about=""><dc:format>image/svg+xml</dc:format><dc:type
        rdf:resource="http://purl.org/dc/dcmitype/StillImage"/></cc:Work></rdf:RDF></metadata>
    <defs
            id="defs6"/>
    <g
            transform="matrix(1.3333333,0,0,-1.3333333,0,49.413333)"
            id="g10"><g
       transform="scale(0.1)"
       id="g12"><path
         id="path14"
         style="fill:#30aa3c;fill-opacity:1;fill-rule:nonzero;stroke:none"
         d="M 0,0.03125 H 370.32 V 370.559 H 0 Z M 786.199,0 H 1156.52 V 370.527 H 786.199 Z M 393.082,0 H 763.406 V 370.527 H 393.082 V 0" /><path
            id="path16"
            style="fill:#ffffff;fill-opacity:1;fill-rule:nonzero;stroke:none"
            d="m 883.594,143.008 c 5.742,0 10.156,2.375 13.23,7.148 3.071,4.778 4.602,14.219 4.602,28.34 v 13.137 c 0,12.027 -0.977,20.527 -2.942,25.508 -2.754,6.914 -7.714,10.379 -14.89,10.379 -5.891,0 -10.215,-2.168 -12.942,-6.465 -3.269,-5.098 -4.898,-14.844 -4.898,-29.219 v -13.34 c 0,-14.121 1.629,-23.73 4.898,-28.828 2.871,-4.441 7.192,-6.66 12.942,-6.66 m 0,114.316 c 10.324,0 19.922,-1.504 28.801,-4.511 12.664,-4.18 22.925,-11.036 30.781,-20.586 5.094,-6.016 9.082,-13.243 11.941,-21.668 2.891,-8.418 4.317,-16.899 4.317,-25.395 0,-7.984 -0.911,-15.484 -2.735,-22.547 -2.617,-9.941 -6.804,-18.371 -12.539,-25.301 -6.953,-8.371 -16.347,-14.64 -28.242,-18.839 -10.059,-3.524 -20.84,-5.282 -32.324,-5.282 -11.25,0 -21.895,1.758 -31.953,5.282 -12.012,4.199 -21.504,10.468 -28.418,18.839 -5.743,6.797 -9.922,15.157 -12.547,25.094 -1.946,7.453 -2.934,15.043 -2.934,22.754 0,7.578 1.047,14.906 3.137,21.965 2.734,9.406 7.168,17.766 13.32,25.098 7.852,9.277 18.035,16.074 30.574,20.402 9.282,3.125 18.879,4.695 28.821,4.695 M 320.543,116.672 h -90.539 v 27.449 h 7.629 c 3.812,0 6.351,0.449 7.648,1.375 1.313,0.918 1.965,3.07 1.965,6.469 v 66.668 c 0,3.547 -0.683,5.734 -2.051,6.57 -1.382,0.852 -3.89,1.281 -7.562,1.281 h -7.629 v 27.454 h 90.539 v -27.454 h -7.629 c -4.461,0 -7.25,-0.789 -8.441,-2.351 -0.649,-0.918 -0.965,-2.746 -0.965,-5.5 v -66.668 c 0,-2.883 0.258,-4.649 0.773,-5.293 1.317,-1.699 4.172,-2.551 8.633,-2.551 h 7.629 z m -136.93,50.586 -1.367,-50.586 H 35.6445 v 27.449 h 7.6407 c 4.4375,0 7.2461,0.781 8.4296,2.356 0.6485,0.918 0.9805,2.753 0.9805,5.488 v 66.668 c 0,2.883 -0.2656,4.648 -0.7812,5.305 -1.3086,1.699 -4.1914,2.546 -8.6289,2.546 h -7.6407 v 27.454 h 91.1285 v -27.454 h -9.601 c -3.527,0 -5.781,-0.429 -6.758,-1.281 -0.98,-0.836 -1.476,-2.898 -1.476,-6.168 V 148.84 h 26.66 c 8.234,0 13.265,0.879 15.093,2.637 1.825,1.765 3.664,7.031 5.481,15.781 z m 370.563,-50.735 h -23.281 l -2.52,10.403 h -1.078 c -5.66,-5.098 -11.375,-8.664 -17.156,-10.696 -5.754,-2.019 -12.321,-3.035 -19.657,-3.035 -9.98,0 -18.519,0.918 -25.621,2.743 -13.816,3.527 -24.636,10.402 -32.461,20.585 -5.41,6.946 -9.265,15.364 -11.547,25.305 -1.679,7.188 -2.531,14.91 -2.531,23.133 0,8.234 1.27,16.477 3.789,24.719 2.52,8.242 6.321,15.75 11.371,22.547 7.34,9.55 16.411,16.406 27.231,20.586 7.945,3.007 16.598,4.511 25.988,4.511 22.004,0 38.961,-4.902 50.86,-14.707 11.203,-9.148 16.785,-21.433 16.785,-36.863 h -45.465 c 0,8.758 -2.352,14.91 -7.028,18.437 -3.011,2.215 -6.921,3.329 -11.734,3.329 -6.375,0 -10.828,-2.227 -13.348,-6.668 -3.371,-6.008 -5.05,-17.969 -5.05,-35.891 0,-17.508 1.738,-29.207 5.23,-35.098 2.77,-4.57 7.758,-6.855 14.981,-6.855 5.531,0 9.921,0.754 13.16,2.258 3.261,1.504 4.871,3.75 4.871,6.746 v 0.996 c 0,3.527 -0.617,5.715 -1.891,6.555 -1.258,0.859 -3.449,1.296 -6.582,1.296 h -3.969 v 25.09 h 66.024 v -25.09 c -3.613,0 -6.07,-0.664 -7.395,-1.98 -1.328,-1.289 -1.976,-3.391 -1.976,-6.27 z m 79.918,108.782 v -27.453 h 7.644 c 5.11,0 9.082,1.242 11.953,3.722 2.879,2.489 4.317,6.141 4.317,10.996 0,4.961 -1.758,8.328 -5.293,10.094 -3.535,1.762 -8.289,2.641 -14.317,2.641 z m -62.524,28.437 h 59.973 c 17.781,0 30.645,-0.527 38.613,-1.574 13.203,-1.699 23.067,-5.223 29.602,-10.586 7.84,-6.394 11.758,-15.809 11.758,-28.23 0,-6.809 -1.887,-12.825 -5.676,-18.047 -3.789,-5.227 -8.836,-9.219 -15.11,-11.965 l 12.356,-20 c 5.488,-8.75 8.359,-13.328 8.633,-13.723 2.988,-3.66 7.109,-6.355 12.344,-8.054 v -25.086 h -72.52 v 25.086 c 3.391,0.539 5.352,0.917 5.879,1.179 1.699,0.668 2.539,1.965 2.539,3.93 0,1.57 -1.309,4.5 -3.914,8.824 l -9.016,14.906 h -12.937 v -20.988 c 0,-2.344 0.269,-3.973 0.777,-4.902 1.047,-1.953 3.332,-2.949 6.867,-2.949 V 116.477 H 571.57 v 25.086 h 6.461 c 3.672,0 6.032,0.792 7.063,2.363 0.648,1.047 0.992,2.871 0.992,5.488 v 71.375 c 0,3.41 -0.594,5.57 -1.785,6.477 -1.156,0.91 -3.254,1.379 -6.27,1.379 h -6.461 z m 394.68,0.067 h 57.42 l 53.11,-74.922 v 43.34 c 0,2.343 -0.45,4.015 -1.37,5 -0.91,0.976 -3.07,1.476 -6.45,1.476 h -6.27 v 25.106 h 58.19 v -25.106 h -6.46 c -3.52,0 -5.71,-0.656 -6.57,-1.965 -0.86,-1.308 -1.28,-3.269 -1.28,-5.886 V 116.523 h -43.88 l -52.35,73.547 v -37.461 c 0,-4.582 0.43,-7.55 1.28,-8.918 0.86,-1.375 2.97,-2.07 6.37,-2.07 h 6.27 v -25.098 h -58.01 v 25.098 h 6.465 c 3.535,0 5.82,0.781 6.855,2.356 0.657,1.054 0.977,2.878 0.977,5.488 v 71.387 c 0,3.406 -0.586,5.554 -1.758,6.472 -1.191,0.91 -3.191,1.379 -6.074,1.379 h -6.465 v 25.106"/></g></g></svg>